# Blender 3.5.1
# www.blender.org
mtllib road.mtl
o Cube
v 1.000000 1.000000 -1.000000
v 1.000000 -1.000000 -1.000000
v 1.000000 1.000000 1.000000
v 1.000000 -1.000000 1.000000
v -1.000000 1.000000 -1.000000
v -1.000000 -1.000000 -1.000000
v -1.000000 1.000000 1.000000
v -1.000000 -1.000000 1.000000
vn -0.0000 1.0000 -0.0000
vn -0.0000 -0.0000 1.0000
vn -1.0000 -0.0000 -0.0000
vn -0.0000 -1.0000 -0.0000
vn 1.0000 -0.0000 -0.0000
vn -0.0000 -0.0000 -1.0000
vt 0.000000 0.000000
vt 1.000000 0.002487
vt 1.000000 1.000000
vt 0.000000 0.002487
vt 1.000000 -0.000714
vt 0.000000 1.000000
vt 0.000000 1.000000
vt 1.000000 0.000000
vt 1.000000 0.997513
vt 0.000000 0.000000
vt 1.000000 0.999286
vt 0.000000 0.997513
vt 1.000000 1.000000
vt 1.000000 0.000000
vt 0.000000 -0.000714
vt 0.000000 0.000000
vt 0.000000 1.000000
vt 1.000000 1.000000
vt 1.000000 0.000000
vt 0.000000 0.000000
vt 0.000000 1.000000
vt 0.001896 1.001190
s 0
usemtl Material
f 5/14/1 3/7/1 1/1/1
f 3/8/2 8/21/2 4/10/2
f 7/19/3 6/17/3 8/20/3
f 2/5/4 8/22/4 6/15/4
f 1/2/5 4/12/5 2/4/5
f 5/14/6 2/6/6 6/16/6
f 5/14/1 7/18/1 3/7/1
f 3/8/2 7/18/2 8/21/2
f 7/19/3 5/13/3 6/17/3
f 2/5/4 4/11/4 8/22/4
f 1/2/5 3/9/5 4/12/5
f 5/14/6 1/3/6 2/6/6
